<svg width="61" height="46" viewBox="0 0 61 46" xmlns="http://www.w3.org/2000/svg"><title>Group</title><g fill="none" fill-rule="evenodd"><path fill="#000" d="M19.293 27.127l2.257-.157.151 2.166-2.256.158zm7.671-10.069l-1.012 1.283s-.626-.572-.674-.862c-.06-.36.185-1.529.185-1.529"/><path d="M25.967 18.478c-.095-1.362-.384-2.69-1.13-3.632-.251-.319-.672-.591-.972-.775-.485-.298-1.13-.537-1.64-.501-1.645.115-4.284 1.09-4.697 3.447-.365 2.244-.645 5.822-2.071 6.954-1.426 1.133-1.774 1.563-4.964 2.263 3.83 2.639 11.178 1.246 13.075-.248 1.898-1.494 1.77-1.833 2.332-3.778.15-.516-.044-1.405.022-1.97a9.43 9.43 0 0 0 .045-1.76l-5.762 3.882" fill="#000"/><path d="M20.322 22.897c-.804.422-1.026.878-2.028.316-1.002-.561-.454-.625-.454-.625-.027-1.019 1.598-.493 1.825-1.214.227-.72.106-1.161-.054-1.89-.248-1.134 1.718-.896 1.887.755.667 1.628-.037 2.06-1.176 2.658z" fill="#FFF"/><path d="M23.907 16.668c.022.308-.138.57-.356.585-.218.015-.412-.222-.434-.53-.022-.308.138-.57.356-.586.218-.015.413.222.434.53" fill="#F3F3F3"/><path fill="#000" d="M35.388 24.018l-2.245.276.688 5.603 2.245-.276zm-8.738-6.466l1.327.954s.444-.722.41-1.014c-.041-.362-.6-1.418-.6-1.418"/><path d="M28 18.642c-.284-1.335-.372-2.691.084-3.802.155-.376.484-.754.722-1.013.384-.42.938-.828 1.44-.934 1.612-.343 4.418-.132 5.465 2.019.97 2.056 2.225 5.418 3.908 6.114 1.683.695 2.018 1.717 5.278 1.51-2.954 3.592-10.285 3.575-12.521 2.662-2.236-.913-2.207-1.273-3.283-2.988-.286-.455-.345-1.363-.565-1.889a9.494 9.494 0 0 1-.528-1.68l6.61 2.144" fill="#000"/><path d="M34.645 21.334c.89.185 1.229.562 2.037-.255.809-.816.265-.726.265-.726-.256-.987-1.672-.034-2.09-.664-.417-.63-.421-1.087-.469-1.83-.074-1.16-1.899-.39-1.606 1.245-.192 1.748.604 1.969 1.863 2.23z" fill="#FFF"/><path d="M29.481 16.334c.065.303.29.51.504.465.214-.045.336-.327.271-.63-.064-.302-.29-.51-.504-.464-.214.045-.335.327-.27.63" fill="#F3F3F3"/><path d="M55.078 11.638c-.696-2.542-3.577-4.588-4.983-2.392-3.27 3.158 2.78 10.93 2.385 11.688 2.785-2.142 10.52-6.616 7.587-12.036-3.473-1.422-3.806 1.132-4.99 2.74z" fill="#E60000"/><path d="M14.081 2.526c-.255-1.106-2.994-1.95-3.736-.184-.225 4.12 4.654 6.338 4.464 6.935 1.774-1.93 4.506-5.373 2.673-8.16-2.179-.459-1.877-.602-3.4 1.409z" fill="#630007"/><path d="M4.645 39.39C3.687 38.4.29 39.055.67 41.315c.86 2.194 6.75 3.654 6.94 4.382.55-3.032 2.121-8.636-1.186-9.939-2.473.804-1.87.74-1.778 3.634z" fill="#BD2446"/></g></svg>