<?xml version="1.0" encoding="UTF-8"?>
<svg width="61px" height="46px" viewBox="0 0 61 46" version="1.1" xmlns="http://www.w3.org/2000/svg" xmlns:xlink="http://www.w3.org/1999/xlink">
    <!-- Generator: Sketch 41 (35326) - http://www.bohemiancoding.com/sketch -->
    <title>Group</title>
    <desc>Created with Sketch.</desc>
    <defs></defs>
    <g id="Page-1" stroke="none" stroke-width="1" fill="none" fill-rule="evenodd">
        <g id="Group">
            <g id="Bird" transform="translate(18.714287, 21.543351) rotate(-4.000000) translate(-18.714287, -21.543351) translate(9.855354, 13.761220)">
                <rect id="Rectangle-1" fill="#000000" x="9.04742095" y="13.3925031" width="2.26185524" height="2.17175726"></rect>
                <path d="M17.4016794,3.88289312 L16.3024903,5.09222536 C16.3024903,5.09222536 15.7178823,4.47774843 15.6901021,4.18542234 C15.6556526,3.82291569 15.9817154,2.6735608 15.9817154,2.6735608" id="Fill-39" fill="#000000"></path>
                <path d="M16.3074108,5.22967082 C16.3082904,3.86463709 16.1120171,2.51981307 15.4348427,1.52794476 C15.2057671,1.1924628 14.804785,0.891511314 14.5187231,0.687227298 C14.0553569,0.356307025 13.428823,0.0730860777 12.9167641,0.0730860777 C11.2685628,0.0730860777 8.5674335,0.862415155 7.99122588,3.18411292 C7.47081326,5.39674086 6.94184138,8.94674568 5.44019627,9.97686345 C3.93855117,11.0069812 3.56166733,11.4123741 0.330682227,11.8881965 C3.96652985,14.7872309 11.3940406,13.9101683 13.3911568,12.552113 C15.388273,11.1940578 15.284864,10.8479754 15.9808871,8.94674568 C16.1655425,8.44198566 16.0346059,7.54155105 16.1404105,6.98215001 C16.2500476,6.40291558 16.3070338,5.81168193 16.3074108,5.22967082 L10.2887907,8.70035461" id="Fill-40" fill="#000000"></path>
                <path d="M9.39422858,9.3155379 C8.49524835,9.18467892 8.04783123,9.42292458 7.56731439,8.37952634 C7.08679754,7.33612809 7.56731439,7.6061394 7.56731439,7.6061394 C8.14499178,6.7667346 9.15001203,8.14653354 9.75745644,7.69727244 C10.3649008,7.24801135 10.5255888,6.81972029 10.8244659,6.13717844 C11.2903149,5.07332491 12.7415431,6.42171848 11.9077193,7.85696774 C11.4901501,9.56585562 10.6672005,9.50083655 9.39422858,9.3155379 Z" id="Fill-44" fill="#FFFFFF" transform="translate(9.757456, 7.581011) rotate(-32.000000) translate(-9.757456, -7.581011) "></path>
                <path d="M14.3794305,3.2804443 C14.3794305,3.58944867 14.2021109,3.83984534 13.9833582,3.83984534 C13.7645353,3.83984534 13.5872157,3.58944867 13.5872157,3.2804443 C13.5872157,2.9715391 13.7645353,2.72114243 13.9833582,2.72114243 C14.2021109,2.72114243 14.3794305,2.9715391 14.3794305,3.2804443" id="Fill-46" fill="#F3F3F3"></path>
            </g>
            <g id="Bird-Copy" transform="translate(35.565847, 20.888370) scale(-1, 1) rotate(12.000000) translate(-35.565847, -20.888370) translate(26.565847, 11.888370)">
                <rect id="Rectangle-1" fill="#000000" transform="translate(11.196963, 14.737356) rotate(-5.000000) translate(-11.196963, -14.737356) " x="10.065849" y="11.915026" width="2.26222904" height="5.6446596"></rect>
                <path d="M17.0275171,3.88292613 L15.9281463,5.09226865 C15.9281463,5.09226865 15.3434417,4.4777865 15.3156569,4.18545792 C15.2812017,3.82294819 15.6073184,2.67358353 15.6073184,2.67358353" id="Fill-39" fill="#000000"></path>
                <path d="M15.9330676,5.22971528 C15.9339474,3.86466995 15.7376416,2.5198345 15.0603554,1.52795775 C14.8312418,1.19247294 14.4301935,0.891518894 14.1440843,0.687233141 C13.6806416,0.356310054 13.0540041,0.0730866991 12.5418606,0.0730866991 C10.8933869,0.0730866991 8.19181119,0.862422487 7.61550835,3.18413999 C7.09500973,5.39678674 6.56595043,8.94682175 5.06405716,9.97694828 C3.56216389,11.0070748 3.44710095,12.0763933 0.215581884,12.5522197 C3.85203037,15.4512788 11.0188854,13.9102865 13.0163316,12.5522197 C15.0137779,11.1941529 14.9103518,10.8480676 15.60649,8.94682175 C15.7911759,8.44205743 15.6602177,7.54161517 15.7660397,6.98220937 C15.875695,6.40297001 15.9326906,5.81173134 15.9330676,5.22971528 L9.91345289,8.70042858" id="Fill-40" fill="#000000"></path>
                <path d="M9.01874291,9.3156171 C8.11961412,9.18475701 7.67212305,9.42300469 7.1915268,8.37959758 C6.71093055,7.33619046 7.1915268,7.60620407 7.1915268,7.60620407 C7.76929967,6.76679213 8.774486,8.1466028 9.3820308,7.69733789 C9.9895756,7.24807297 10.1502901,6.81977827 10.4492166,6.13723062 C10.9151426,5.07336804 12.3666106,6.42177307 11.5326491,7.85703454 C11.1150109,9.56593695 10.2919253,9.50091732 9.01874291,9.3156171 Z" id="Fill-44" fill="#FFFFFF" transform="translate(9.382031, 7.581076) rotate(-32.000000) translate(-9.382031, -7.581076) "></path>
                <path d="M14.0047687,3.28047219 C14.0047687,3.58947919 13.8274198,3.83987799 13.608631,3.83987799 C13.3897719,3.83987799 13.212423,3.58947919 13.212423,3.28047219 C13.212423,2.97156437 13.3897719,2.72116557 13.608631,2.72116557 C13.8274198,2.72116557 14.0047687,2.97156437 14.0047687,3.28047219" id="Fill-46" fill="#F3F3F3"></path>
            </g>
            <path d="M55.1782018,11.6414108 C54.5714558,9.0772509 51.7641014,6.93182368 50.2824743,9.07725091 C46.9036179,12.1187364 52.6795461,20.0972777 52.2572736,20.8414506 C55.1156713,18.7978092 63.0029743,14.596508 60.2601529,9.0772509 C56.8390697,7.53532432 56.4168442,10.0754508 55.1782018,11.6414108 Z" id="Fill-118" fill="#E60000" transform="translate(55.023804, 14.520126) rotate(-2.000000) translate(-55.023804, -14.520126) "></path>
            <path d="M14.6476411,2.45353082 C14.6476411,1.3185823 12.1689062,-0.120391724 11.047923,1.43453275 C9.90177244,5.39792087 14.1568949,8.65615415 13.8374081,9.19550249 C16.0000413,7.71434849 19.4369874,4.97437736 18.2774197,1.84658758 C16.2580205,0.908709971 16.5848467,0.837217614 14.6476411,2.45353082 Z" id="Fill-118" fill="#630007" transform="translate(14.680851, 4.974377) rotate(-13.000000) translate(-14.680851, -4.974377) "></path>
            <path d="M6.22071347,38.8707088 C6.22071347,37.4918228 3.32161281,35.6026943 2.02464342,37.4918228 C1.11887079,39.6671234 4.34204342,44.8099275 3.97239947,45.4651994 C6.47455036,43.6656971 11.4977704,40.7262371 10.0232136,37.4918228 C7.6867834,36.3523647 8.16451659,36.7239753 6.22071347,38.8707088 Z" id="Fill-118" fill="#BD2446" transform="translate(6.076324, 41.080563) rotate(-44.000000) translate(-6.076324, -41.080563) "></path>
        </g>
    </g>
</svg>